HIERARCHY
ROOT joint_Root
{
	OFFSET 0.0 0.0 0.0
	CHANNELS 6 Xposition Yposition Zposition Zrotation Xrotation Yrotation 
	JOINT Hips
	{
		OFFSET -17.1583 93.1646 452.98
		CHANNELS 6 Xposition Yposition Zposition Zrotation Xrotation Yrotation 
		JOINT Spine
		{
			OFFSET 15.7357 0.0 0.0
			CHANNELS 6 Xposition Yposition Zposition Zrotation Xrotation Yrotation 
			JOINT Chest
			{
				OFFSET 8.98455 -0.406207 0.0
				CHANNELS 6 Xposition Yposition Zposition Zrotation Xrotation Yrotation 
				JOINT Neck
				{
					OFFSET 16.3773 0.0 0.0
					CHANNELS 6 Xposition Yposition Zposition Zrotation Xrotation Yrotation 
					JOINT Head
					{
						OFFSET 6.45672 0.0 0.0
						CHANNELS 6 Xposition Yposition Zposition Zrotation Xrotation Yrotation 
						End Site
						{
							OFFSET 0.0 0.0 0.0
						}
					}
				}
				JOINT Shoulder_L
				{
					OFFSET 12.9942 -0.242716 4.98039
					CHANNELS 6 Xposition Yposition Zposition Zrotation Xrotation Yrotation 
					JOINT UpperArm_L
					{
						OFFSET 5.34809 0.0 0.0
						CHANNELS 6 Xposition Yposition Zposition Zrotation Xrotation Yrotation 
						JOINT LowerArm_L
						{
							OFFSET 24.3286 1.87007e-05 0.0
							CHANNELS 6 Xposition Yposition Zposition Zrotation Xrotation Yrotation 
							JOINT Hand_L
							{
								OFFSET 22.2916 0.0 0.0
								CHANNELS 6 Xposition Yposition Zposition Zrotation Xrotation Yrotation 
								End Site
								{
									OFFSET 0.0 0.0 0.0
								}
							}
						}
					}
				}
				JOINT Shoulder_R
				{
					OFFSET 12.9945 -0.242716 -4.98039
					CHANNELS 6 Xposition Yposition Zposition Zrotation Xrotation Yrotation 
					JOINT UpperArm_R
					{
						OFFSET -5.34813 0.0 0.0
						CHANNELS 6 Xposition Yposition Zposition Zrotation Xrotation Yrotation 
						JOINT LowerArm_R
						{
							OFFSET -24.3289 0.000322201 0.0
							CHANNELS 6 Xposition Yposition Zposition Zrotation Xrotation Yrotation 
							JOINT Hand_R
							{
								OFFSET -22.2915 -0.000108084 0.0
								CHANNELS 6 Xposition Yposition Zposition Zrotation Xrotation Yrotation 
								End Site
								{
									OFFSET 0.0 0.0 0.0
								}
							}
						}
					}
				}
			}
		}
		JOINT UpperLeg_L
		{
			OFFSET -2.19248 -6.46944 0.0
			CHANNELS 6 Xposition Yposition Zposition Zrotation Xrotation Yrotation 
			JOINT LowerLeg_L
			{
				OFFSET 39.0811 0.0 -1.23785e-05
				CHANNELS 6 Xposition Yposition Zposition Zrotation Xrotation Yrotation 
				JOINT Foot_L
				{
					OFFSET 40.9854 0.0 -1.26872e-05
					CHANNELS 6 Xposition Yposition Zposition Zrotation Xrotation Yrotation 
					JOINT Toes_L
					{
						OFFSET 11.7543 0.0 0.0
						CHANNELS 6 Xposition Yposition Zposition Zrotation Xrotation Yrotation 
						End Site
						{
							OFFSET 0.0 0.0 0.0
						}
					}
				}
			}
		}
		JOINT UpperLeg_R
		{
			OFFSET -2.19251 6.46944 0.0
			CHANNELS 6 Xposition Yposition Zposition Zrotation Xrotation Yrotation 
			JOINT LowerLeg_R
			{
				OFFSET -39.0811 -0.00228153 -0.0401928
				CHANNELS 6 Xposition Yposition Zposition Zrotation Xrotation Yrotation 
				JOINT Foot_R
				{
					OFFSET -40.9854 0.0 0.0
					CHANNELS 6 Xposition Yposition Zposition Zrotation Xrotation Yrotation 
					JOINT Toes_R
					{
						OFFSET -11.7543 0.0 0.0
						CHANNELS 6 Xposition Yposition Zposition Zrotation Xrotation Yrotation 
						End Site
						{
							OFFSET 0.0 0.0 0.0
						}
					}
				}
			}
		}
	}
}
MOTION
Frames:	4
Frame Time:	0.0333333
0.000000 0.000000 0.000000 0.000000 0.000000 -0.000000 2.365090 91.114900 -63.298300 87.862000 -2.749180 -9.132590 15.735700 0.000005 -0.000001 54.329000 85.089700 -50.999300 8.984550 -0.406207 -0.000000 0.398310 -5.938970 6.680230 16.377300 -0.000001 -0.000001 -3.963640 5.723330 -0.544813 6.456720 -0.000001 -0.000000 3.403980 10.411900 -9.016730 12.994200 -0.242716 4.980390 -92.121200 7.364640 -73.883800 5.348090 -0.000007 -0.000001 -74.457000 -1.118520 -1.640210 24.328600 0.000019 0.000005 48.630600 11.334900 -80.180900 22.291600 -0.000001 0.000005 39.324400 4.130060 22.351600 12.994500 -0.242716 -4.980390 90.031900 -0.111692 -74.039700 -5.348130 -0.000001 -0.000004 -63.076900 -8.457830 22.326700 -24.328900 0.000322 -0.000009 5.246920 14.523700 -20.116100 -22.291500 -0.000108 -0.000004 37.901200 5.245770 1.544670 -2.192480 -6.469440 -0.000000 -179.966000 -1.982590 1.468980 39.081100 -0.000007 -0.000012 0.075252 -0.065637 48.902500 40.985400 -0.000006 -0.000013 -4.675450 -0.274900 -32.745900 11.754300 -0.000000 0.000003 0.002257 0.058286 -14.212600 -2.192510 6.469440 -0.000001 -177.041000 -5.122060 146.651000 -39.081100 -0.002282 -0.040193 -0.003081 0.013905 24.692600 -40.985400 0.000008 0.000006 -11.381100 -4.670400 -77.703100 -11.754300 -0.000006 -0.000006 0.000453 0.159666 -10.097700
0.000000 0.000000 0.000000 0.000000 0.000000 -0.000000 1.539040 88.478600 -54.648300 85.615900 -2.842080 -9.904940 15.735700 0.000005 -0.000001 63.276500 85.628300 -59.326000 8.984550 -0.406207 -0.000000 0.202278 -4.191130 7.906170 16.377300 -0.000001 -0.000001 -4.115360 5.322270 -0.342654 6.456720 -0.000001 -0.000000 2.630360 9.700730 -9.278140 12.994200 -0.242716 4.980390 -92.490700 8.433860 -73.480700 5.348090 -0.000007 -0.000001 -74.278700 -1.321740 0.769374 24.328600 0.000019 0.000005 50.300600 17.910200 -75.680400 22.291600 -0.000001 0.000005 41.473300 4.200110 21.310800 12.994500 -0.242716 -4.980390 89.698500 1.050050 -73.982400 -5.348130 -0.000001 -0.000004 -64.083300 -5.827570 17.671000 -24.328900 0.000322 -0.000009 5.350830 13.488900 -21.881600 -22.291500 -0.000108 -0.000004 38.884800 5.262950 1.088130 -2.192480 -6.469440 -0.000000 -176.193000 -4.821690 -6.457710 39.081100 -0.000007 -0.000012 0.241140 -0.115892 64.330100 40.985400 -0.000006 -0.000013 -5.056910 -3.773340 -34.243100 11.754300 -0.000000 0.000003 0.002280 0.059589 -14.159800 -2.192510 6.469440 -0.000001 -172.195000 -3.571440 141.969000 -39.081100 -0.002282 -0.040193 0.220215 -0.271882 38.586400 -40.985400 0.000008 0.000006 -1.539960 -4.952240 -69.942500 -11.754300 -0.000006 -0.000006 -0.003968 0.218776 -7.694580
0.000000 0.000000 0.000000 0.000000 0.000000 -0.000000 0.787008 85.377500 -45.929800 84.157900 -2.350530 -8.185100 15.735700 0.000005 -0.000001 76.286400 85.100000 -72.134800 8.984550 -0.406207 -0.000000 1.861850 -2.535360 8.337760 16.377300 -0.000001 -0.000001 -5.039820 4.563160 0.289020 6.456720 -0.000001 -0.000000 1.499770 8.768740 -9.398710 12.994200 -0.242716 4.980390 -92.853000 9.717080 -73.550300 5.348090 -0.000007 -0.000001 -72.547500 -6.537880 4.487080 24.328600 0.000019 0.000005 48.983700 22.219700 -71.791500 22.291600 -0.000001 0.000005 41.179100 4.166890 21.806000 12.994500 -0.242716 -4.980390 89.164600 2.859870 -73.708600 -5.348130 -0.000001 -0.000004 -64.344100 -2.329650 11.318100 -24.328900 0.000322 -0.000009 5.204130 11.569100 -24.431400 -22.291500 -0.000108 -0.000004 40.157200 5.262020 1.112950 -2.192480 -6.469440 -0.000000 -173.248000 -5.853820 -13.624200 39.081100 -0.000007 -0.000012 0.368214 -0.071154 79.062000 40.985400 -0.000006 -0.000013 -4.911280 -7.205110 -35.349300 11.754300 -0.000000 0.000003 0.002233 0.056993 -14.265100 -2.192510 6.469440 -0.000001 -169.821000 -1.487860 142.789000 -39.081100 -0.002282 -0.040193 0.056534 -0.041687 51.966900 -40.985400 0.000008 0.000006 -1.698350 -3.255640 -78.887900 -11.754300 -0.000006 -0.000006 -0.009464 0.267256 -5.716580
0.000000 0.000000 0.000000 0.000000 0.000000 -0.000000 0.089065 83.358100 -37.645800 82.690000 -2.267870 -7.381730 15.735700 0.000005 -0.000001 85.852700 84.371700 -81.385100 8.984550 -0.406207 -0.000000 3.515350 -0.978220 8.955800 16.377300 -0.000001 -0.000001 -6.661790 4.364730 0.534819 6.456720 -0.000001 -0.000000 -0.104966 7.792100 -9.761130 12.994200 -0.242716 4.980390 -93.136300 10.167500 -72.756000 5.348090 -0.000007 -0.000001 -69.578500 -12.629000 9.319540 24.328600 0.000019 0.000005 43.224600 23.299100 -67.175800 22.291600 -0.000001 0.000005 41.995600 4.131020 22.334500 12.994500 -0.242716 -4.980390 88.925600 3.860040 -74.432800 -5.348130 -0.000001 -0.000004 -64.463700 -0.796892 4.472350 -24.328900 0.000322 -0.000009 6.188280 10.206600 -31.462300 -22.291500 -0.000108 -0.000004 40.935300 5.273250 0.809944 -2.192480 -6.469440 -0.000000 -171.214000 -5.837120 -23.030000 39.081100 -0.000007 -0.000012 0.350994 0.001568 90.254500 40.985400 -0.000006 -0.000013 -3.921020 -5.721250 -37.322700 11.754300 -0.000000 0.000003 0.002306 0.061178 -14.095400 -2.192510 6.469440 -0.000001 -167.931000 -0.999774 147.237000 -39.081100 -0.002282 -0.040193 0.000151 0.001933 57.739400 -40.985400 0.000008 0.000006 -2.134760 -2.641120 -86.939800 -11.754300 -0.000006 -0.000006 -0.006039 0.238855 -6.876260
